<svg id="visual" viewBox="0 0 900 600" width="900" height="600" xmlns="http://www.w3.org/2000/svg" xmlns:xlink="http://www.w3.org/1999/xlink" version="1.1"><g stroke-width="1" stroke-linejoin="bevel"><path d="M435.7 261L523.3 192L396.7 134Z" fill="#3e4c5d" stroke="#3e4c5d"></path><path d="M523.3 192L548.3 119L396.7 134Z" fill="#1e2732" stroke="#1e2732"></path><path d="M435.7 261L537.3 343L523.3 192Z" fill="#1d2530" stroke="#1d2530"></path><path d="M523.3 192L625.9 252L548.3 119Z" fill="#1e2732" stroke="#1e2732"></path><path d="M396.7 134L275.1 248L435.7 261Z" fill="#384555" stroke="#384555"></path><path d="M435.7 261L390.7 368L537.3 343Z" fill="#1d2530" stroke="#1d2530"></path><path d="M537.3 343L625.9 252L523.3 192Z" fill="#1d2530" stroke="#1d2530"></path><path d="M275.1 248L390.7 368L435.7 261Z" fill="#1f2935" stroke="#1f2935"></path><path d="M548.3 119L384.7 0L396.7 134Z" fill="#1a212b" stroke="#1a212b"></path><path d="M396.7 134L207.1 72L275.1 248Z" fill="#1e2732" stroke="#1e2732"></path><path d="M591.9 0L564.3 0L548.3 119Z" fill="#1f2935" stroke="#1f2935"></path><path d="M548.3 119L564.3 0L384.7 0Z" fill="#1b232d" stroke="#1b232d"></path><path d="M537.3 343L629.9 316L625.9 252Z" fill="#1b232d" stroke="#1b232d"></path><path d="M684.9 159L591.9 0L548.3 119Z" fill="#1a212b" stroke="#1a212b"></path><path d="M728.4 207L684.9 159L625.9 252Z" fill="#313e4d" stroke="#313e4d"></path><path d="M625.9 252L684.9 159L548.3 119Z" fill="#1d2530" stroke="#1d2530"></path><path d="M275.1 248L292.1 368L390.7 368Z" fill="#2b3745" stroke="#2b3745"></path><path d="M384.7 0L207.1 72L396.7 134Z" fill="#1f2935" stroke="#1f2935"></path><path d="M275.1 248L91.6 371L292.1 368Z" fill="#1f2935" stroke="#1f2935"></path><path d="M292.1 368L409.7 456L390.7 368Z" fill="#1b232d" stroke="#1b232d"></path><path d="M390.7 368L409.7 456L537.3 343Z" fill="#25303d" stroke="#25303d"></path><path d="M537.3 343L658.9 428L629.9 316Z" fill="#1b232d" stroke="#1b232d"></path><path d="M738.4 309L728.4 207L625.9 252Z" fill="#25303d" stroke="#25303d"></path><path d="M684.9 159L746.4 0L591.9 0Z" fill="#384555" stroke="#384555"></path><path d="M384.7 0L220.1 0L207.1 72Z" fill="#1e2732" stroke="#1e2732"></path><path d="M658.9 428L738.4 309L629.9 316Z" fill="#1b232d" stroke="#1b232d"></path><path d="M629.9 316L738.4 309L625.9 252Z" fill="#1e2732" stroke="#1e2732"></path><path d="M516.3 505L658.9 428L537.3 343Z" fill="#1d2530" stroke="#1d2530"></path><path d="M409.7 456L516.3 505L537.3 343Z" fill="#2b3745" stroke="#2b3745"></path><path d="M143.6 0L144.6 69L207.1 72Z" fill="#384555" stroke="#384555"></path><path d="M207.1 72L91.6 213L275.1 248Z" fill="#3e4c5d" stroke="#3e4c5d"></path><path d="M805.4 146L746.4 0L684.9 159Z" fill="#191f28" stroke="#191f28"></path><path d="M805.4 146L684.9 159L728.4 207Z" fill="#25303d" stroke="#25303d"></path><path d="M144.6 69L91.6 213L207.1 72Z" fill="#2b3745" stroke="#2b3745"></path><path d="M220.1 0L143.6 0L207.1 72Z" fill="#2b3745" stroke="#2b3745"></path><path d="M144.6 69L0 153L91.6 213Z" fill="#1b232d" stroke="#1b232d"></path><path d="M900 259L805.4 146L728.4 207Z" fill="#191f28" stroke="#191f28"></path><path d="M292.1 368L247.1 486L409.7 456Z" fill="#191f28" stroke="#191f28"></path><path d="M409.7 456L339.7 600L516.3 505Z" fill="#313e4d" stroke="#313e4d"></path><path d="M91.6 371L247.1 486L292.1 368Z" fill="#1e2732" stroke="#1e2732"></path><path d="M91.6 213L91.6 371L275.1 248Z" fill="#1d2530" stroke="#1d2530"></path><path d="M246.1 600L339.7 600L247.1 486Z" fill="#1b232d" stroke="#1b232d"></path><path d="M247.1 486L339.7 600L409.7 456Z" fill="#1e2732" stroke="#1e2732"></path><path d="M658.9 428L765.4 484L738.4 309Z" fill="#2b3745" stroke="#2b3745"></path><path d="M516.3 505L610.9 600L658.9 428Z" fill="#384555" stroke="#384555"></path><path d="M339.7 600L567.3 600L516.3 505Z" fill="#25303d" stroke="#25303d"></path><path d="M610.9 600L765.4 484L658.9 428Z" fill="#1b232d" stroke="#1b232d"></path><path d="M900 259L900 132L805.4 146Z" fill="#1b232d" stroke="#1b232d"></path><path d="M567.3 600L610.9 600L516.3 505Z" fill="#313e4d" stroke="#313e4d"></path><path d="M0 0L0 153L144.6 69Z" fill="#191f28" stroke="#191f28"></path><path d="M91.6 213L0 235L91.6 371Z" fill="#1a212b" stroke="#1a212b"></path><path d="M0 153L0 235L91.6 213Z" fill="#1d2530" stroke="#1d2530"></path><path d="M900 259L728.4 207L738.4 309Z" fill="#1f2935" stroke="#1f2935"></path><path d="M805.4 146L900 0L746.4 0Z" fill="#1d2530" stroke="#1d2530"></path><path d="M900 379L900 259L738.4 309Z" fill="#1b232d" stroke="#1b232d"></path><path d="M95.6 600L246.1 600L247.1 486Z" fill="#191f28" stroke="#191f28"></path><path d="M0 402L77.6 485L91.6 371Z" fill="#384555" stroke="#384555"></path><path d="M91.6 371L77.6 485L247.1 486Z" fill="#2b3745" stroke="#2b3745"></path><path d="M143.6 0L0 0L144.6 69Z" fill="#1f2935" stroke="#1f2935"></path><path d="M900 132L900 0L805.4 146Z" fill="#191f28" stroke="#191f28"></path><path d="M765.4 484L900 379L738.4 309Z" fill="#25303d" stroke="#25303d"></path><path d="M0 235L0 402L91.6 371Z" fill="#1e2732" stroke="#1e2732"></path><path d="M0 516L95.6 600L77.6 485Z" fill="#191f28" stroke="#191f28"></path><path d="M77.6 485L95.6 600L247.1 486Z" fill="#25303d" stroke="#25303d"></path><path d="M819.4 600L900 499L765.4 484Z" fill="#25303d" stroke="#25303d"></path><path d="M765.4 484L900 499L900 379Z" fill="#1f2935" stroke="#1f2935"></path><path d="M610.9 600L819.4 600L765.4 484Z" fill="#1b232d" stroke="#1b232d"></path><path d="M0 402L0 516L77.6 485Z" fill="#2b3745" stroke="#2b3745"></path><path d="M0 516L0 600L95.6 600Z" fill="#3e4c5d" stroke="#3e4c5d"></path><path d="M819.4 600L900 600L900 499Z" fill="#384555" stroke="#384555"></path></g></svg>