<svg id="visual" viewBox="0 0 900 600" width="900" height="600" xmlns="http://www.w3.org/2000/svg" xmlns:xlink="http://www.w3.org/1999/xlink" version="1.1"><g stroke-width="1" stroke-linejoin="bevel"><path d="M368.7 339L401.7 437L514.3 400Z" fill="#3e4c5d" stroke="#3e4c5d"></path><path d="M401.7 437L543.3 452L514.3 400Z" fill="#191f28" stroke="#191f28"></path><path d="M683.9 354L548.3 280L514.3 400Z" fill="#1f2935" stroke="#1f2935"></path><path d="M514.3 400L548.3 280L368.7 339Z" fill="#1e2732" stroke="#1e2732"></path><path d="M548.3 280L399.7 218L368.7 339Z" fill="#191f28" stroke="#191f28"></path><path d="M399.7 218L278.1 261L368.7 339Z" fill="#25303d" stroke="#25303d"></path><path d="M368.7 339L224.1 391L401.7 437Z" fill="#1a212b" stroke="#1a212b"></path><path d="M278.1 261L224.1 391L368.7 339Z" fill="#25303d" stroke="#25303d"></path><path d="M224.1 391L272.1 520L401.7 437Z" fill="#25303d" stroke="#25303d"></path><path d="M401.7 437L533.3 600L543.3 452Z" fill="#1a212b" stroke="#1a212b"></path><path d="M533.3 600L648.9 465L543.3 452Z" fill="#2b3745" stroke="#2b3745"></path><path d="M543.3 452L683.9 354L514.3 400Z" fill="#1d2530" stroke="#1d2530"></path><path d="M670.9 270L557.3 163L548.3 280Z" fill="#2b3745" stroke="#2b3745"></path><path d="M548.3 280L557.3 163L399.7 218Z" fill="#1a212b" stroke="#1a212b"></path><path d="M272.1 520L368.7 600L401.7 437Z" fill="#3e4c5d" stroke="#3e4c5d"></path><path d="M648.9 465L683.9 354L543.3 452Z" fill="#1a212b" stroke="#1a212b"></path><path d="M368.7 600L533.3 600L401.7 437Z" fill="#1e2732" stroke="#1e2732"></path><path d="M683.9 354L670.9 270L548.3 280Z" fill="#1f2935" stroke="#1f2935"></path><path d="M782.4 487L729.4 335L683.9 354Z" fill="#1e2732" stroke="#1e2732"></path><path d="M683.9 354L729.4 335L670.9 270Z" fill="#1b232d" stroke="#1b232d"></path><path d="M557.3 163L367.7 80L399.7 218Z" fill="#1d2530" stroke="#1d2530"></path><path d="M399.7 218L256.1 127L278.1 261Z" fill="#1e2732" stroke="#1e2732"></path><path d="M367.7 80L256.1 127L399.7 218Z" fill="#191f28" stroke="#191f28"></path><path d="M278.1 261L131.6 320L224.1 391Z" fill="#1e2732" stroke="#1e2732"></path><path d="M96.6 210L131.6 320L278.1 261Z" fill="#191f28" stroke="#191f28"></path><path d="M144.6 600L225.1 600L272.1 520Z" fill="#3e4c5d" stroke="#3e4c5d"></path><path d="M104.6 472L272.1 520L224.1 391Z" fill="#384555" stroke="#384555"></path><path d="M272.1 520L225.1 600L368.7 600Z" fill="#1d2530" stroke="#1d2530"></path><path d="M533.3 600L674.9 600L648.9 465Z" fill="#1f2935" stroke="#1f2935"></path><path d="M648.9 465L782.4 487L683.9 354Z" fill="#191f28" stroke="#191f28"></path><path d="M900 370L766.4 272L729.4 335Z" fill="#1f2935" stroke="#1f2935"></path><path d="M729.4 335L766.4 272L670.9 270Z" fill="#2b3745" stroke="#2b3745"></path><path d="M670.9 270L650.9 87L557.3 163Z" fill="#25303d" stroke="#25303d"></path><path d="M807.4 131L650.9 87L670.9 270Z" fill="#313e4d" stroke="#313e4d"></path><path d="M557.3 163L489.3 0L367.7 80Z" fill="#3e4c5d" stroke="#3e4c5d"></path><path d="M131.6 320L104.6 472L224.1 391Z" fill="#313e4d" stroke="#313e4d"></path><path d="M674.9 600L782.4 487L648.9 465Z" fill="#2b3745" stroke="#2b3745"></path><path d="M650.9 87L489.3 0L557.3 163Z" fill="#1b232d" stroke="#1b232d"></path><path d="M367.7 80L272.1 0L256.1 127Z" fill="#1f2935" stroke="#1f2935"></path><path d="M104.6 472L144.6 600L272.1 520Z" fill="#1b232d" stroke="#1b232d"></path><path d="M489.3 0L354.7 0L367.7 80Z" fill="#2b3745" stroke="#2b3745"></path><path d="M256.1 127L96.6 210L278.1 261Z" fill="#25303d" stroke="#25303d"></path><path d="M131.6 320L0 371L104.6 472Z" fill="#3e4c5d" stroke="#3e4c5d"></path><path d="M142.6 100L96.6 210L256.1 127Z" fill="#1a212b" stroke="#1a212b"></path><path d="M674.9 600L749.4 600L782.4 487Z" fill="#313e4d" stroke="#313e4d"></path><path d="M158.6 0L142.6 100L256.1 127Z" fill="#2b3745" stroke="#2b3745"></path><path d="M354.7 0L272.1 0L367.7 80Z" fill="#1f2935" stroke="#1f2935"></path><path d="M807.4 0L672.9 0L650.9 87Z" fill="#191f28" stroke="#191f28"></path><path d="M650.9 87L672.9 0L489.3 0Z" fill="#313e4d" stroke="#313e4d"></path><path d="M766.4 272L807.4 131L670.9 270Z" fill="#1f2935" stroke="#1f2935"></path><path d="M900 216L807.4 131L766.4 272Z" fill="#3e4c5d" stroke="#3e4c5d"></path><path d="M0 268L0 371L131.6 320Z" fill="#3e4c5d" stroke="#3e4c5d"></path><path d="M104.6 472L0 600L144.6 600Z" fill="#1e2732" stroke="#1e2732"></path><path d="M0 268L131.6 320L96.6 210Z" fill="#384555" stroke="#384555"></path><path d="M0 89L0 268L96.6 210Z" fill="#3e4c5d" stroke="#3e4c5d"></path><path d="M900 471L900 370L782.4 487Z" fill="#1b232d" stroke="#1b232d"></path><path d="M782.4 487L900 370L729.4 335Z" fill="#25303d" stroke="#25303d"></path><path d="M0 371L0 504L104.6 472Z" fill="#1d2530" stroke="#1d2530"></path><path d="M272.1 0L158.6 0L256.1 127Z" fill="#2b3745" stroke="#2b3745"></path><path d="M142.6 100L0 89L96.6 210Z" fill="#2b3745" stroke="#2b3745"></path><path d="M900 600L900 471L782.4 487Z" fill="#25303d" stroke="#25303d"></path><path d="M900 370L900 216L766.4 272Z" fill="#384555" stroke="#384555"></path><path d="M807.4 131L807.4 0L650.9 87Z" fill="#1a212b" stroke="#1a212b"></path><path d="M0 504L0 600L104.6 472Z" fill="#1b232d" stroke="#1b232d"></path><path d="M749.4 600L900 600L782.4 487Z" fill="#1e2732" stroke="#1e2732"></path><path d="M900 82L807.4 0L807.4 131Z" fill="#191f28" stroke="#191f28"></path><path d="M0 0L0 89L142.6 100Z" fill="#1b232d" stroke="#1b232d"></path><path d="M900 216L900 82L807.4 131Z" fill="#2b3745" stroke="#2b3745"></path><path d="M158.6 0L0 0L142.6 100Z" fill="#1f2935" stroke="#1f2935"></path><path d="M900 82L900 0L807.4 0Z" fill="#1d2530" stroke="#1d2530"></path></g></svg>