<?xml version="1.0" standalone="no"?>
<!DOCTYPE svg PUBLIC "-//W3C//DTD SVG 20010904//EN"
 "http://www.w3.org/TR/2001/REC-SVG-20010904/DTD/svg10.dtd">
<svg version="1.0" xmlns="http://www.w3.org/2000/svg"
 width="446.000000pt" height="446.000000pt" viewBox="0 0 446.000000 446.000000"
 preserveAspectRatio="xMidYMid meet">
<metadata>
Created by potrace 1.14, written by Peter Selinger 2001-2017
</metadata>
<g transform="translate(0.000000,446.000000) scale(0.100000,-0.100000)"
fill="#000000" stroke="none">
<path d="M588 4137 c-2 -7 -4 -415 -4 -907 l1 -896 162 -159 c88 -88 181 -179
205 -202 l43 -42 0 634 0 635 245 -244 c135 -135 414 -412 620 -616 l374 -371
256 255 c140 140 417 415 615 611 l360 356 5 -640 5 -640 205 202 205 202 -1
913 c0 501 -3 914 -5 916 -3 4 -652 -636 -1465 -1445 l-180 -180 -295 292
c-161 160 -531 527 -821 815 -289 288 -528 518 -530 511z"/>
<path d="M586 1043 c1 -395 2 -721 3 -725 0 -4 92 -6 204 -5 l202 2 0 520 1
520 -202 203 c-111 111 -204 202 -206 202 -2 0 -2 -323 -2 -717z"/>
<path d="M3668 1531 l-198 -196 0 -512 0 -512 205 -1 c190 -1 205 1 206 17 0
10 1 330 2 711 1 456 -1 692 -8 691 -5 0 -99 -89 -207 -198z"/>
</g>
</svg>
